<?xml version="1.0" encoding="UTF-8" standalone="no"?>
<svg
   xmlns:dc="http://purl.org/dc/elements/1.1/"
   xmlns:cc="http://creativecommons.org/ns#"
   xmlns:rdf="http://www.w3.org/1999/02/22-rdf-syntax-ns#"
   xmlns:svg="http://www.w3.org/2000/svg"
   xmlns="http://www.w3.org/2000/svg"
   xmlns:sodipodi="http://sodipodi.sourceforge.net/DTD/sodipodi-0.dtd"
   xmlns:inkscape="http://www.inkscape.org/namespaces/inkscape"
   version="1.1"
   width="64"
   height="64"
   viewbox="0 0 64 64"
   id="svg66"
   sodipodi:docname="windy.svg"
   inkscape:version="1.0.1 (3bc2e813f5, 2020-09-07)">
  <metadata
     id="metadata70">
    <rdf:RDF>
      <cc:Work
         rdf:about="">
        <dc:format>image/svg+xml</dc:format>
        <dc:type
           rdf:resource="http://purl.org/dc/dcmitype/StillImage" />
        <dc:title />
      </cc:Work>
    </rdf:RDF>
  </metadata>
  <sodipodi:namedview
     pagecolor="#ffffff"
     bordercolor="#666666"
     borderopacity="1"
     objecttolerance="10"
     gridtolerance="10"
     guidetolerance="10"
     inkscape:pageopacity="0"
     inkscape:pageshadow="2"
     inkscape:window-width="1383"
     inkscape:window-height="1278"
     id="namedview68"
     showgrid="false"
     inkscape:zoom="10.021254"
     inkscape:cx="32"
     inkscape:cy="32"
     inkscape:window-x="2254"
     inkscape:window-y="120"
     inkscape:window-maximized="0"
     inkscape:current-layer="cloudy-day-2"
     inkscape:document-rotation="0" />
  <defs
     id="defs19">
    <filter
       id="blur"
       width="200%"
       height="200%">
      <feGaussianBlur
         in="SourceAlpha"
         stdDeviation="3"
         id="feGaussianBlur2" />
      <feOffset
         dx="0"
         dy="4"
         result="offsetblur"
         id="feOffset4" />
      <feComponentTransfer
         id="feComponentTransfer8">
        <feFuncA
           type="linear"
           slope="0.05"
           id="feFuncA6" />
      </feComponentTransfer>
      <feMerge
         id="feMerge14">
        <feMergeNode
           id="feMergeNode10" />
        <feMergeNode
           in="SourceGraphic"
           id="feMergeNode12" />
      </feMerge>
    </filter>
    <style
       type="text/css"
       id="style17"><![CDATA[

        ]]></style>
  </defs>
  <g
     filter="url(#blur)"
     id="cloudy-day-2">
    <g
       transform="matrix(1.0657299,0,0,1.0657299,21.854489,7.8028103)"
       id="g63">
      <g
         transform="translate(0,16)"
         id="g57">
        <g
           class="am-weather-sun"
           id="g53">
          <g
             id="g23">
            <line
               fill="none"
               stroke="#ffa500"
               stroke-linecap="round"
               stroke-width="2"
               transform="translate(0,9)"
               x1="0"
               x2="0"
               y1="0"
               y2="3"
               id="line21" />
          </g>
          <g
             transform="rotate(45)"
             id="g27">
            <line
               fill="none"
               stroke="#ffa500"
               stroke-linecap="round"
               stroke-width="2"
               transform="translate(0,9)"
               x1="0"
               x2="0"
               y1="0"
               y2="3"
               id="line25" />
          </g>
          <g
             transform="rotate(90)"
             id="g31">
            <line
               fill="none"
               stroke="#ffa500"
               stroke-linecap="round"
               stroke-width="2"
               transform="translate(0,9)"
               x1="0"
               x2="0"
               y1="0"
               y2="3"
               id="line29" />
          </g>
          <g
             transform="rotate(135)"
             id="g35">
            <line
               fill="none"
               stroke="#ffa500"
               stroke-linecap="round"
               stroke-width="2"
               transform="translate(0,9)"
               x1="0"
               x2="0"
               y1="0"
               y2="3"
               id="line33" />
          </g>
          <g
             transform="scale(-1)"
             id="g39">
            <line
               fill="none"
               stroke="#ffa500"
               stroke-linecap="round"
               stroke-width="2"
               transform="translate(0,9)"
               x1="0"
               x2="0"
               y1="0"
               y2="3"
               id="line37" />
          </g>
          <g
             transform="rotate(-135)"
             id="g43">
            <line
               fill="none"
               stroke="#ffa500"
               stroke-linecap="round"
               stroke-width="2"
               transform="translate(0,9)"
               x1="0"
               x2="0"
               y1="0"
               y2="3"
               id="line41" />
          </g>
          <g
             transform="rotate(-90)"
             id="g47">
            <line
               fill="none"
               stroke="#ffa500"
               stroke-linecap="round"
               stroke-width="2"
               transform="translate(0,9)"
               x1="0"
               x2="0"
               y1="0"
               y2="3"
               id="line45" />
          </g>
          <g
             transform="rotate(-45)"
             id="g51">
            <line
               fill="none"
               stroke="#ffa500"
               stroke-linecap="round"
               stroke-width="2"
               transform="translate(0,9)"
               x1="0"
               x2="0"
               y1="0"
               y2="3"
               id="line49" />
          </g>
        </g>
        <circle
           cx="0"
           cy="0"
           fill="#ffa500"
           r="5"
           stroke="#ffa500"
           stroke-width="2"
           id="circle55" />
      </g>
      <g
         class="am-weather-cloud-2"
         id="g61">
        <path
           d="m 47.7,35.4 c 0,-4.6 -3.7,-8.2 -8.2,-8.2 -1,0 -1.9,0.2 -2.8,0.5 -0.3,-3.4 -3.1,-6.2 -6.6,-6.2 -3.7,0 -6.7,3 -6.7,6.7 0,0.8 0.2,1.6 0.4,2.3 -0.3,-0.1 -0.7,-0.1 -1,-0.1 -3.7,0 -6.7,3 -6.7,6.7 0,3.6 2.9,6.6 6.5,6.7 h 17.2 c 4.4,-0.5 7.9,-4 7.9,-8.4 z"
           fill="#91c0f8"
           stroke="#ffffff"
           stroke-linejoin="round"
           stroke-width="1.2"
           transform="translate(-20,-11)"
           id="path59" />
      </g>
    </g>
  </g>
  <path
     class="cls-5"
     d="m 40.779054,39.286044 a 1.9753584,1.9753584 0 0 1 1.951653,1.975358 v 0 A 1.9753584,1.9753584 0 0 1 40.75535,43.236761 H 24.162338 a 2.3704301,2.3704301 0 0 0 -2.37043,2.370431 v 0 a 2.3704301,2.3704301 0 0 0 2.37043,2.370428 H 39.76767 a 1.5802867,1.5802867 0 0 1 1.580288,1.580287 v 0.06321 a 1.5802867,1.5802867 0 0 1 -1.580288,1.580287 h -1.382752"
     id="path40"
     style="fill:none;stroke:#a5a9aa;stroke-width:3.19719px;stroke-linecap:round;stroke-miterlimit:10" />
  <path
     class="cls-6"
     d="m 47.076496,49.557907 a 1.5802867,1.5802867 0 0 0 1.580288,-1.580287 v 0 a 1.5802867,1.5802867 0 0 0 -1.580288,-1.580285 h -3.160573"
     id="path42"
     style="fill:none;stroke:#b9c1c6;stroke-width:3.19719px;stroke-linecap:round;stroke-miterlimit:10" />
</svg>
