<?xml version="1.0" encoding="UTF-8" standalone="no"?>
<svg
   xmlns:dc="http://purl.org/dc/elements/1.1/"
   xmlns:cc="http://creativecommons.org/ns#"
   xmlns:rdf="http://www.w3.org/1999/02/22-rdf-syntax-ns#"
   xmlns:svg="http://www.w3.org/2000/svg"
   xmlns="http://www.w3.org/2000/svg"
   xmlns:sodipodi="http://sodipodi.sourceforge.net/DTD/sodipodi-0.dtd"
   xmlns:inkscape="http://www.inkscape.org/namespaces/inkscape"
   data-name="Layer 1"
   id="Layer_1"
   viewBox="0 0 64 64"
   version="1.1"
   sodipodi:docname="windy.svg"
   inkscape:version="1.0.1 (3bc2e813f5, 2020-09-07)">
  <metadata
     id="metadata47">
    <rdf:RDF>
      <cc:Work
         rdf:about="">
        <dc:format>image/svg+xml</dc:format>
        <dc:type
           rdf:resource="http://purl.org/dc/dcmitype/StillImage" />
        <dc:title />
      </cc:Work>
    </rdf:RDF>
  </metadata>
  <sodipodi:namedview
     pagecolor="#ffffff"
     bordercolor="#666666"
     borderopacity="1"
     objecttolerance="10"
     gridtolerance="10"
     guidetolerance="10"
     inkscape:pageopacity="0"
     inkscape:pageshadow="2"
     inkscape:window-width="1661"
     inkscape:window-height="912"
     id="namedview45"
     showgrid="false"
     inkscape:zoom="7.5553451"
     inkscape:cx="32"
     inkscape:cy="32"
     inkscape:window-x="0"
     inkscape:window-y="0"
     inkscape:window-maximized="0"
     inkscape:current-layer="Layer_1"
     inkscape:document-rotation="0" />
  <defs
     id="defs14">
    <style
       id="style2">.cls-1{fill:#efcc00;}.cls-2,.cls-5,.cls-6{fill:none;stroke-linecap:round;stroke-miterlimit:10;stroke-width:3px;}.cls-2{stroke:#efcc00;}.cls-3{fill:url(#linear-gradient);}.cls-4{fill:url(#linear-gradient-2);}.cls-5{stroke:#a5a9aa;}.cls-6{stroke:#b9c1c6;}</style>
    <linearGradient
       gradientTransform="matrix(-0.7414105,0,0,0.7414105,-713.96853,9.6292947)"
       gradientUnits="userSpaceOnUse"
       id="linear-gradient"
       x1="-989.28"
       x2="-1010.37"
       y1="52.39"
       y2="25.08">
      <stop
         offset="0"
         stop-color="#f2f2f2"
         id="stop4" />
      <stop
         offset="1"
         stop-color="#cfcfcf"
         id="stop6" />
    </linearGradient>
    <linearGradient
       gradientTransform="matrix(0,-0.7414105,-0.7414105,0,-87.971714,-707.47734)"
       gradientUnits="userSpaceOnUse"
       id="linear-gradient-2"
       x1="-1022.95"
       x2="-1011.33"
       y1="-90.94"
       y2="-73.29">
      <stop
         offset="0.02"
         stop-color="#fff"
         id="stop9" />
      <stop
         offset="1"
         stop-color="#fff"
         stop-opacity="0"
         id="stop11" />
    </linearGradient>
  </defs>
  <circle
     class="cls-1"
     cx="34.856071"
     cy="25.940323"
     r="9.3343582"
     id="circle18"
     style="stroke-width:0.74141" />
  <line
     class="cls-2"
     x1="34.856071"
     x2="34.856071"
     y1="11.112116"
     y2="14.403977"
     id="line20" />
  <line
     class="cls-2"
     x1="34.856071"
     x2="34.856071"
     y1="37.476677"
     y2="40.768536"
     id="line22" />
  <line
     class="cls-2"
     x1="20.027861"
     x2="23.327137"
     y1="25.940323"
     y2="25.940323"
     id="line24" />
  <line
     class="cls-2"
     x1="46.392422"
     x2="49.684284"
     y1="25.940323"
     y2="25.940323"
     id="line26" />
  <line
     class="cls-2"
     x1="24.372526"
     x2="26.700556"
     y1="15.45678"
     y2="17.784809"
     id="line28" />
  <line
     class="cls-2"
     x1="43.011589"
     x2="45.339615"
     y1="34.09584"
     y2="36.42387"
     id="line30" />
  <line
     class="cls-2"
     x1="24.372526"
     x2="26.700556"
     y1="36.42387"
     y2="34.09584"
     id="line32" />
  <line
     class="cls-2"
     x1="43.011589"
     x2="45.339615"
     y1="17.784809"
     y2="15.45678"
     id="line34" />
  <path
     class="cls-3"
     d="m 22.771082,21.417722 a 12.96727,12.96727 0 0 1 11.491862,6.909946 10.194394,10.194394 0 1 1 5.130561,18.994936 l -16.622423,0.04449 a 12.974684,12.974684 0 0 1 0,-25.949367 z"
     id="path36"
     style="fill:url(#linear-gradient);stroke-width:0.74141" />
  <circle
     class="cls-4"
     cx="-25.159414"
     cy="47.908741"
     r="10.194394"
     transform="rotate(-74.39)"
     id="circle38"
     style="fill:url(#linear-gradient-2);stroke-width:0.74141" />
  <path
     class="cls-5"
     d="m 37.621534,44.104883 a 1.8535262,1.8535262 0 0 1 1.831284,1.853526 v 0 a 1.8535262,1.8535262 0 0 1 -1.853526,1.853526 H 22.029671 a 2.2242315,2.2242315 0 0 0 -2.224231,2.224232 v 0 a 2.2242315,2.2242315 0 0 0 2.224231,2.224231 h 14.642858 a 1.482821,1.482821 0 0 1 1.482821,1.482821 v 0.05931 A 1.482821,1.482821 0 0 1 36.672529,55.28535 H 35.37506"
     id="path40" />
  <path
     class="cls-6"
     d="m 43.530576,53.743219 a 1.482821,1.482821 0 0 0 1.482821,-1.482821 v 0 a 1.482821,1.482821 0 0 0 -1.482821,-1.482821 h -2.965642"
     id="path42" />
</svg>
